PathFileType	4	(X/Y/Z)	C:/Users/beibeiliu/ov580/test_trc/capture2\sequence.20_training_dense_right.trc
DataRate	CameraRate	NumFrames	NumMarkers	Units	OrigDataRate	OrigDataStartFrame	OrigNumFrames
120	120	16	19	mm	120	253	337
Frame#	Time	ThumbCMC			ThumbMCP			ThumbIP			ThumbTip			IndexMCP			IndexPIP			IndexTip			MiddleMCP			MiddlePIP			MiddleTip			RingMCP			RingPIP			RingTip			PinkyMCP			PinkyPIP			PinkyTip			BackHand1			BackHand2			BackHand3	
		X0	Y0	Z0	X1	Y1	Z1	X2	Y2	Z2	X3	Y3	Z3	X4	Y4	Z4	X5	Y5	Z5	X6	Y6	Z6	X7	Y7	Z7	X8	Y8	Z8	X9	Y9	Z9	X10	Y10	Z10	X11	Y11	Z11	X12	Y12	Z12	X13	Y13	Z13	X14	Y14	Z14	X15	Y15	Z15	X16	Y16	Z16	X17	Y17	Z17	X18	Y18	Z18	
252	2.1	99.1731	26.6455	9.18695	97.2951	29.0577	-22.5729	111.402	37.6115	-45.2375	135.219	44.559	-50.008	114.931	75.0892	-44.3085	116.323	86.2161	-69.003	120.068	101.336	-89.8299	131.023	83.514	-48.1891	136.829	93.6158	-68.4692	137.844	109.153	-95.9174	149.846	81.5886	-42.0095	155.528	92.787	-61.4654	155.646	106.09	-84.7489	165.463	75.9674	-29.8133	174.007	85.9788	-47.5425	177.821	101.696	-64.5763	146.332	72.3611	9.29872	144.667	62.0807	36.2051	115.672	61.3913	14.0879	
253	2.10833	99.9278	29.7133	7.4168	98.7987	26.9117	-19.5377	113.721	39.2871	-48.0587	138.317	47.7457	-54.0631	112.073	75.2841	-46.9413	115.773	85.9182	-69.5854	120.624	98.4556	-87.4465	130.378	83.252	-49.4191	137.76	95.79	-72.7205	138.201	109.222	-95.9899	152.48	84.2377	-43.2317	155.409	91.3983	-62.3607	156.287	105.734	-85.0669	170.392	77.5298	-29.3527	173.308	85.3024	-46.5002	177.971	102.512	-63.4761	147.281	72.3913	6.69283	140.473	64.5311	35.3431	115.922	63.1477	14.4503	
254	2.11667	103.745	28.4927	9.32922	103.15	26.465	-21.1806	117.151	36.3434	-44.5358	143.29	45.1151	-47.5065	117.636	76.9342	-50.1561	121.583	83.9173	-69.5355	124.377	99.1585	-94.166	132.891	82.2801	-50.2191	139.054	92.7355	-74.1661	143.698	107.113	-99.1386	153.482	83.2275	-44.6389	156.728	91.7453	-65.3114	159.684	104.051	-88.3994	173.313	79.5416	-29.5034	173.342	86.1338	-51.6797	179.112	99.1202	-66.2923	148.965	74.2941	9.51912	140.236	66.4635	32.3906	114.428	62.1902	13.5873	
255	2.125	103.073	27.5083	9.08879	105.373	26.6474	-24.9242	120.942	33.5616	-49.3621	149.381	44.1609	-51.3393	118.703	72.3994	-49.4339	123.14	82.0642	-73.8343	130.347	96.0969	-96.2177	137.461	81.7927	-53.6844	144.092	89.3617	-75.3264	148.514	99.9909	-97.6292	156.374	79.9438	-43.563	162.17	90.3315	-69.0244	164.244	98.4069	-88.6408	175.831	78.3183	-29.7705	179.633	83.8549	-50.3897	182.659	96.1907	-66.4976	149.182	74.3259	4.75039	141.625	66.5698	35.3912	114.792	61.8974	9.5186	
256	2.13333	106.256	31.4788	4.56986	109.183	24.4808	-24.6038	126.396	31.5877	-47.0085	149.959	38.9297	-47.2058	125.122	71.0706	-54.0829	127.666	77.4757	-75.6071	136.983	88.5608	-97.4773	143.626	78.9502	-52.8672	150.552	85.1603	-77.4794	153.505	95.468	-103.08	157.484	78.0572	-50.4259	169.028	84.557	-68.0159	170.085	93.4782	-90.217	178.249	76.7255	-34.0161	182.061	79.6299	-53.9826	188.331	91.8107	-66.8274	147.951	74.3271	3.78654	141.61	70.0406	30.7324	118.896	65.5312	10.9387	
257	2.14167	104.855	29.134	5.95731	111.942	22.0036	-23.2253	128.891	24.7399	-46.8763	155.898	35.4883	-45.6839	126.504	65.9352	-59.1485	138.071	72.4388	-82.0453	145.002	80.2602	-101.347	144.425	73.7409	-59.2535	153.702	76.621	-80.1819	161.771	86.5792	-105.849	161.993	73.2576	-51.0737	172.427	77.9962	-72.1136	175.418	84.9291	-93.3435	181.75	70.7919	-34.0931	188.179	72.9419	-51.8947	195.624	86.5318	-72.1141	153.082	74.0468	-0.562756	144.654	71.8929	28.6482	120.303	64.3321	7.59123	
258	2.15	108.975	28.1851	6.10159	113.445	17.6666	-27.6914	134.143	20.4699	-46.478	162.481	29.9036	-45.4698	132.791	61.4709	-58.1888	142.648	64.9985	-84.1478	152.187	70.5776	-101.015	153.078	67.9141	-59.7165	158.112	69.6762	-85.9596	168.02	76.7704	-108.82	171.27	69.1352	-53.6168	176.869	70.9444	-74.2073	184.006	76.3823	-98.1895	183.335	64.422	-32.3052	195.42	68.2917	-53.6144	199.109	77.8048	-74.1363	153.483	73.5878	-0.758161	149.786	71.4941	26.7021	120.667	64.6839	2.88055	
259	2.15833	109.513	27.6263	5.42275	118.048	15.1758	-23.1826	137.837	16.1912	-42.9348	163.406	23.1277	-43.4244	134.362	53.931	-62.9643	144.126	54.0851	-84.7837	154.382	60.7317	-106.503	157.843	60.3809	-63.8733	161.38	58.3145	-85.8036	173.932	65.0896	-105.753	169.795	60.3684	-51.9939	181.069	59.2939	-70.8517	186.124	62.1031	-96.0344	189.223	61.8461	-35.2548	197.683	60.7926	-56.1573	203.382	69.1769	-71.9217	158.715	71.9307	-3.96629	150.944	70.0773	28.3646	120.924	60.7588	3.14366	
260	2.16667	109.846	24.5027	7.63893	117.457	9.22636	-18.5587	138.973	8.18038	-41.9005	168.109	16.9651	-42.8991	141.981	45.9478	-61.9872	150.794	44.2738	-81.1698	160.657	47.0593	-105.75	158.839	50.4548	-59.588	167.409	47.39	-82.7335	176.996	49.8879	-106.789	174.34	50.3575	-52.93	183.7	48.0569	-73.4778	192.31	49.2837	-96.1977	192.494	53.8757	-35.2475	200.981	50.7059	-51.5241	209.662	56.6931	-70.5379	160.435	65.8326	-0.984462	150.094	68.4453	25.8959	126.891	60.3239	-1.36874	
261	2.175	112.708	25.0092	9.56847	120.387	6.73469	-19.005	144.649	5.28409	-37.8905	169.326	13.1035	-33.1468	143.005	36.7346	-60.5711	148.866	32.1109	-81.2108	164.461	33.3996	-102.282	161.096	40.9517	-63.0948	173.585	35.5815	-82.1148	181.624	35.7516	-108.865	179.147	41.5706	-53.332	189.473	37.1426	-68.9181	196.357	34.7894	-95.8061	192.265	44.3685	-30.113	204.474	40.9145	-50.0828	211.133	43.5813	-73.6831	162.84	62.4342	-4.87657	149.887	66.0912	22.4779	127.895	56.0563	-0.656719	
262	2.18333	112.38	22.5797	6.62175	117.817	0.529246	-13.853	140.206	-4.86855	-35.2791	168.932	3.18513	-32.5502	145.343	26.4096	-62.5821	156.13	20.5069	-79.3463	168.177	20.2913	-100.526	166.707	31.2906	-60.721	176.581	23.8789	-83.1514	186.292	20.6327	-104.396	180.489	33.01	-49.8094	190.296	24.158	-70.6309	202.123	21.2598	-93.047	195.149	36.3115	-31.7539	204.466	30.8998	-48.5877	214.838	31.5274	-67.4068	165.793	58.2595	-2.61948	153.788	67.2054	20.1264	130.929	54.0687	-5.28793	
263	2.19167	113.662	20.6107	7.783	118.197	-1.39928	-11.9487	143.504	-8.3941	-31.0479	168.937	-4.32141	-29.4592	145.597	16.4551	-59.9813	153.434	6.92859	-79.0532	165.923	3.79567	-95.4366	167.073	21.1164	-56.7718	176.225	10.1846	-76.088	184.958	3.22852	-102.407	181.535	22.7108	-49.0127	194.518	13.5514	-65.5251	204.063	5.36881	-86.0989	196.878	28.0127	-28.4756	206.293	18.072	-46.2108	214.786	18.4692	-65.9964	165.517	52.2995	-5.09051	154.759	64.173	18.9001	131.208	48.5702	-2.03677	
264	2.2	109.711	20.0205	15.573	115.279	-3.86603	-4.09375	140.085	-15.3235	-24.5776	163.848	-12.6154	-20.7595	146.577	5.61054	-55.0647	152.027	-6.74381	-71.273	167.936	-13.7013	-88.3925	167.323	7.50782	-53.3983	176.433	-5.91383	-70.9511	186.63	-17.3938	-95.1423	183.982	11.7407	-42.9023	190.359	-3.18283	-60.8182	203.873	-15.2994	-82.1971	195.02	16.5647	-25.5067	204.766	5.20132	-41.8999	214.688	-0.751105	-63.8682	169.847	46.847	-2.79641	157.333	58.4217	16.7279	132.943	45.0256	-1.38504	
265	2.20833	114.976	21.3858	16.7882	114.175	-4.80819	-0.195701	135.057	-21.0009	-18.1357	163.453	-21.5007	-17.1681	145.919	-2.39175	-47.0867	151.697	-17.8023	-63.3837	164.208	-30.8887	-82.0057	165.257	-6.1685	-49.3337	171.743	-22.4039	-61.3024	183.619	-38.3079	-80.9137	180.96	-2.82544	-38.1391	191.75	-18.9169	-53.7442	196.986	-32.7439	-68.0381	199.027	5.52097	-22.3726	202.974	-6.63809	-32.5702	216.636	-17.7934	-52.6785	172.654	37.2491	-5.14483	160.281	58.5605	19.3588	134.572	42.6538	-1.41036	
266	2.21667	112.274	20.916	19.9454	111.79	-4.58335	8.18517	129.081	-21.5465	-7.19958	157.139	-30.7992	-11.1751	143.01	-8.53135	-38.2208	147.436	-31.1121	-56.9481	159.4	-45.2615	-70.5329	163.499	-16.617	-41.1873	167.013	-36.1025	-54.2578	171.984	-56.0087	-70.0907	176.69	-12.9846	-32.3105	188.203	-30.4578	-41.4258	192.12	-51.9796	-58.9872	193.194	-3.02522	-14.1499	205.107	-19.9563	-26.2984	209.62	-33.3004	-46.9983	173.429	33.2385	-1.98057	166.247	50.3271	18.0015	139.271	39.058	3.42013	
267	2.225	117.204	24.649	26.4968	110.602	-3.48865	11.504	124.037	-25.1378	-2.02295	149.087	-34.7657	-3.41331	135.494	-17.0411	-34.6181	144.264	-37.8971	-46.1104	153.289	-60.7762	-62.6643	157.102	-24.0716	-35.354	162.736	-46.6074	-45.1463	166.21	-67.8935	-59.1359	176.158	-21.9174	-27.1039	178.685	-43.7615	-37.1095	182.616	-67.6181	-51.0319	192.23	-13.3651	-9.83488	200.715	-31.1394	-19.8951	206.414	-51.0465	-38.1225	176.119	24.8452	-1.75888	170.71	47.9933	17.4694	141.271	34.4807	1.29804	
